<mxfile host="app.diagrams.net" modified="2022-03-15T08:27:19.784Z" agent="5.0 (X11; Linux x86_64) AppleWebKit/537.36 (KHTML, like Gecko) Chrome/96.0.4664.113 Safari/537.36" etag="597V39EAkX2fgmmDPQJe" version="17.1.2" type="github" pages="2">
  <diagram id="2BvJ7SQYvnQd80Tf7VA9" name="Introduction">
    <mxGraphModel dx="1108" dy="1735" grid="1" gridSize="10" guides="1" tooltips="1" connect="1" arrows="1" fold="1" page="1" pageScale="1" pageWidth="1700" pageHeight="1100" math="0" shadow="0">
      <root>
        <mxCell id="0" />
        <mxCell id="1" parent="0" />
        <mxCell id="DLmfBz4OyUol13p7sw7g-1" value="" style="shape=image;verticalLabelPosition=bottom;labelBackgroundColor=default;verticalAlign=top;aspect=fixed;imageAspect=0;image=https://cdn4.iconfinder.com/data/icons/technology-83/1000/object_programming_development_oriented_developer_object-oriented_programming_software-512.png;fontFamily=Comfortaa;fontSource=https%3A%2F%2Ffonts.googleapis.com%2Fcss%3Ffamily%3DComfortaa;fontSize=20;" vertex="1" parent="1">
          <mxGeometry x="250" y="-60" width="512" height="512" as="geometry" />
        </mxCell>
        <mxCell id="DLmfBz4OyUol13p7sw7g-2" value="Object is everything" style="rounded=0;whiteSpace=wrap;html=1;fontFamily=Comfortaa;fontSource=https%3A%2F%2Ffonts.googleapis.com%2Fcss%3Ffamily%3DComfortaa;fontSize=20;fillColor=#d5e8d4;strokeColor=#82b366;" vertex="1" parent="1">
          <mxGeometry x="390" y="452" width="270" height="60" as="geometry" />
        </mxCell>
        <mxCell id="DLmfBz4OyUol13p7sw7g-3" value="Inside object we have data (state) and action (method)" style="rounded=0;whiteSpace=wrap;html=1;fontFamily=Comfortaa;fontSource=https%3A%2F%2Ffonts.googleapis.com%2Fcss%3Ffamily%3DComfortaa;fontSize=20;fillColor=#d5e8d4;strokeColor=#82b366;" vertex="1" parent="1">
          <mxGeometry x="393" y="540" width="264" height="80" as="geometry" />
        </mxCell>
        <mxCell id="DLmfBz4OyUol13p7sw7g-6" value="Types" style="swimlane;fontFamily=Comfortaa;fontSource=https%3A%2F%2Ffonts.googleapis.com%2Fcss%3Ffamily%3DComfortaa;fontSize=20;fillColor=#d5e8d4;strokeColor=#82b366;" vertex="1" parent="1">
          <mxGeometry x="280" y="660" width="460" height="240" as="geometry" />
        </mxCell>
        <mxCell id="DLmfBz4OyUol13p7sw7g-5" value="Prototype-Based Programming Language" style="rounded=0;whiteSpace=wrap;html=1;fontFamily=Comfortaa;fontSource=https%3A%2F%2Ffonts.googleapis.com%2Fcss%3Ffamily%3DComfortaa;fontSize=20;fillColor=#d5e8d4;strokeColor=#82b366;" vertex="1" parent="DLmfBz4OyUol13p7sw7g-6">
          <mxGeometry x="98" y="40" width="264" height="80" as="geometry" />
        </mxCell>
        <mxCell id="DLmfBz4OyUol13p7sw7g-4" value="Class-Based Programming Language" style="rounded=0;whiteSpace=wrap;html=1;fontFamily=Comfortaa;fontSource=https%3A%2F%2Ffonts.googleapis.com%2Fcss%3Ffamily%3DComfortaa;fontSize=20;fillColor=#d5e8d4;strokeColor=#82b366;" vertex="1" parent="DLmfBz4OyUol13p7sw7g-6">
          <mxGeometry x="98" y="130" width="264" height="80" as="geometry" />
        </mxCell>
        <mxCell id="DLmfBz4OyUol13p7sw7g-9" value="JavaScript" style="rounded=0;whiteSpace=wrap;html=1;fontFamily=Comfortaa;fontSource=https%3A%2F%2Ffonts.googleapis.com%2Fcss%3Ffamily%3DComfortaa;fontSize=20;" vertex="1" parent="1">
          <mxGeometry x="762" y="710" width="120" height="60" as="geometry" />
        </mxCell>
        <mxCell id="DLmfBz4OyUol13p7sw7g-10" style="edgeStyle=orthogonalEdgeStyle;rounded=0;orthogonalLoop=1;jettySize=auto;html=1;entryX=0;entryY=0.5;entryDx=0;entryDy=0;fontFamily=Comfortaa;fontSource=https%3A%2F%2Ffonts.googleapis.com%2Fcss%3Ffamily%3DComfortaa;fontSize=20;" edge="1" parent="1" source="DLmfBz4OyUol13p7sw7g-5" target="DLmfBz4OyUol13p7sw7g-9">
          <mxGeometry relative="1" as="geometry" />
        </mxCell>
        <mxCell id="DLmfBz4OyUol13p7sw7g-11" value="Syntactical Sugar" style="rounded=0;whiteSpace=wrap;html=1;fontFamily=Comfortaa;fontSource=https%3A%2F%2Ffonts.googleapis.com%2Fcss%3Ffamily%3DComfortaa;fontSize=20;" vertex="1" parent="1">
          <mxGeometry x="762" y="800" width="120" height="60" as="geometry" />
        </mxCell>
        <mxCell id="DLmfBz4OyUol13p7sw7g-12" style="edgeStyle=orthogonalEdgeStyle;rounded=0;orthogonalLoop=1;jettySize=auto;html=1;fontFamily=Comfortaa;fontSource=https%3A%2F%2Ffonts.googleapis.com%2Fcss%3Ffamily%3DComfortaa;fontSize=20;" edge="1" parent="1" source="DLmfBz4OyUol13p7sw7g-4" target="DLmfBz4OyUol13p7sw7g-11">
          <mxGeometry relative="1" as="geometry" />
        </mxCell>
      </root>
    </mxGraphModel>
  </diagram>
  <diagram id="yUdrg4FQ0qB8dWbt_B9e" name="Factory Function">
    <mxGraphModel dx="1108" dy="635" grid="1" gridSize="10" guides="1" tooltips="1" connect="1" arrows="1" fold="1" page="1" pageScale="1" pageWidth="1700" pageHeight="1100" math="0" shadow="0">
      <root>
        <mxCell id="JdLsVMdnj_IY6oefXBg4-0" />
        <mxCell id="JdLsVMdnj_IY6oefXBg4-1" parent="JdLsVMdnj_IY6oefXBg4-0" />
      </root>
    </mxGraphModel>
  </diagram>
</mxfile>
